# AST/ASF file generated using VICON BodyLanguage
# -----------------------------------------------
:version 1.10
:name VICON
:units
  mass 1.0
  length 0.45
  angle deg
:documentation
   .ast/.asf automatically generated from VICON data using
   VICON BodyBuilder and BodyLanguage model FoxedUp or BRILLIANT.MOD
:root
   order TX TY TZ RX RY RZ
   axis XYZ
   position 0 0 0  
   orientation 0 0 0 
:bonedata
  begin
     id 1 
     name lhipjoint
     direction 0.707368 -0.647095 0.284426 
     length 2.60678 
     axis 0 0 0  XYZ
  end
  begin
     id 2 
     name lfemur
     direction 0.34202 -0.939693 0  
     length 6.63812  
     axis 0 0 20  XYZ
    dof rx ry rz
    limits (-160.0 20.0)
           (-70.0 70.0)
           (-60.0 70.0)
  end
  begin
     id 3 
     name ltibia
     direction 0.34202 -0.939693 0   
     length 7.51178   
     axis 0 0 20   XYZ
    dof rx
    limits (-10.0 170.0)
  end
  begin
     id 4 
     name lfoot
     direction 0.121251 -0.333133 0.935051   
     length 1.83716   
     axis -90 7.62852e-016 20   XYZ
    dof rx rz
    limits (-45.0 90.0)
           (-70.0 20.0)
  end
  begin
     id 5 
     name ltoes
     direction 1.53611e-011 -4.21962e-011 1   
     length 0.916133   
     axis -90 7.62852e-016 20   XYZ
    dof rx
    limits (-90.0 20.0)
  end
  begin
     id 6 
     name rhipjoint
     direction -0.692419 -0.660507 0.290321   
     length 2.55385  
     axis 0 0 0  XYZ 
  end
  begin
     id 7 
     name rfemur
     direction -0.34202 -0.939693 0   
     length 7.29079   
     axis 0 0 -20   XYZ
    dof rx ry rz
    limits (-160.0 20.0)
           (-70.0 70.0)
           (-70.0 60.0)
  end
  begin
     id 8 
     name rtibia
     direction -0.34202 -0.939693 0   
     length 7.47143   
     axis 0 0 -20   XYZ
    dof rx
    limits (-10.0 170.0)
 end
 begin
     id 9 
     name rfoot
     direction -0.119907 -0.329441 0.936532   
     length 1.79439  
     axis -90 -7.62852e-016 -20   XYZ
    dof rx rz
    limits (-45.0 90.0)
           (-20.0 70.0)
  end
  begin
     id 10 
     name rtoes
     direction -1.53571e-011 -4.21961e-011 1   
     length 0.896039   
     axis -90 -7.62852e-016 -20   XYZ
    dof rx
    limits (-90.0 20.0)
  end
  begin
     id 11 
     name lowerback
     direction 0.0367721 0.992912 -0.113016   
     length 1.73542   
     axis 0 0 0   XYZ
    dof rx ry rz
    limits (-20.0 45.0)
           (-30.0 30.0)
           (-30.0 30.0)
  end
  begin
     id 12 
     name upperback
     direction -0.000314626 0.990678 0.136227   
     length 1.7514   
     axis 0 0 0   XYZ
    dof rx ry rz
    limits (-20.0 45.0)
           (-30.0 30.0)
           (-30.0 30.0)
  end
  begin
     id 13 
     name thorax
     direction -0.0226159 0.981151 0.191917   
     length 1.71471   
     axis 0 0 0   XYZ
    dof rx ry rz
    limits (-20.0 45.0)
           (-30.0 30.0)
           (-30.0 30.0)
  end
  begin
     id 14 
     name lowerneck
     direction 0.0219333 0.998071 0.0580739   
     length 1.65882   
     axis 0 0 0   XYZ
    dof rx ry rz
    limits (-20.0 45.0)
           (-30.0 30.0)
           (-30.0 30.0)
  end
  begin
     id 15 
     name upperneck
     direction 0.0384529 0.980058 -0.194957   
     length 1.6612   
     axis 0 0 0   XYZ
    dof rx ry rz
    limits (-20.0 45.0)
           (-30.0 30.0)
           (-30.0 30.0)
  end
  begin
     id 16
     name head
     direction 0.00592123 0.997421 -0.0715234  
     length 1.68077  
     axis 0 0 0   XYZ
    dof rx ry rz
    limits (-20.0 45.0)
           (-30.0 30.0)
           (-30.0 30.0)
  end
  begin
     id 17 
     name lclavicle
     direction 0.904803 0.417826 0.0821728  
     length 3.42227  
     axis 0 0 0   XYZ
    dof ry rz
    limits (-20.0 10.0)
           (0.0 20.0)
  end
  begin
     id 18 
     name lhumerus
     direction 1 -4.48965e-011 -2.68786e-027   
     length 5.11878   
     axis -180 -30 -90   XYZ
    dof rx ry rz
    limits (-60.0 90.0)
           (-90.0 90.0)
           (-90.0 90.0)
  end
  begin
     id 19
     name lradius
     direction 1 -4.48965e-011 2.61168e-028   
     length 3.59971   
     axis -180 -30 -90   XYZ
    dof rx
    limits (-10.0 170.0)
  end
  begin
     id 20
     name lwrist
     direction 1 -4.48965e-011 1.58672e-027   
     length 1.79985   
     axis -1.65735e-015 90 90   XYZ
    dof ry
    limits (-180.0 0.0)
 end
  begin
     id 21 
     name lhand
     direction 1 -4.48942e-011 3.17344e-027   
     length 0.62877   
     axis -2.02492e-015 90 90   XYZ
    dof rx rz
    limits (-90.0 90.0)
           (-45.0 45.0)
  end
  begin
     id 22 
     name lfingers
     direction 1 -4.49011e-011 6.34687e-027   
     length 0.506931   
     axis -4.04985e-015 90 90   XYZ
    dof rx
    limits (0.0 90.0)
  end
  begin
     id 23
     name lthumb
     direction 0.707107 -6.34982e-011 0.707107   
     length 0.727854   
     axis -90 45 2.85299e-015   XYZ
    dof rx rz
    limits (-45.0 45.0)
           (-45.0 45.0)
  end
  begin
     id 24 
     name rclavicle
     direction -0.945647 0.32488 0.0143075   
     length 3.52737  
     axis 0 0 0   XYZ 
    dof ry rz
    limits (-10.0 20.0)
           (-20.0 0.0)
  end
  begin
     id 25 
     name rhumerus
     direction -1 -4.48962e-011 1.92182e-027  
     length 5.4902   
     axis -180 30 90   XYZ
    dof rx ry rz
    limits (-90.0 60.0)
           (-90.0 90.0)
           (-90.0 90.0)
  end
  begin
     id 26 
     name rradius
     direction -1 -4.48967e-011 -5.97193e-028   
     length 3.20659   
     axis -180 30 90   XYZ
    dof rx
    limits (-10.0 170.0)
  end
  begin
     id 27 
     name rwrist
     direction -1 -4.48964e-011 1.58672e-027   
     length 1.6033   
     axis -1.65735e-015 -90 -90   XYZ
    dof ry
    limits (-180.0 0.0)
  end
  begin
     id 28
     name rhand
     direction -1 -4.49006e-011 3.17344e-027   
     length 0.691885   
     axis -2.02492e-015 -90 -90   XYZ
    dof rx rz
    limits (-90.0 90.0)
           (-45.0 45.0)
  end
  begin
     id 29
     name rfingers
     direction -1 -4.48908e-011 6.34687e-027   
     length 0.557815   
     axis -4.04985e-015 -90 -90   XYZ
    dof rx
    limits (0.0 90.0)
  end
  begin
     id 30
     name rthumb
     direction -0.707107 -6.34999e-011 0.707107   
     length 0.800915   
     axis -90 -45 -2.85299e-015   XYZ
    dof rx rz
    limits (-45.0 45.0)
           (-45.0 45.0)
  end
:hierarchy
  begin
    root lhipjoint rhipjoint lowerback
    lhipjoint lfemur
    lfemur ltibia
    ltibia lfoot
    lfoot ltoes
    rhipjoint rfemur
    rfemur rtibia
    rtibia rfoot
    rfoot rtoes
    lowerback upperback
    upperback thorax
    thorax lowerneck lclavicle rclavicle
    lowerneck upperneck
    upperneck head
    lclavicle lhumerus
    lhumerus lradius
    lradius lwrist
    lwrist lhand lthumb
    lhand lfingers
    rclavicle rhumerus
    rhumerus rradius
    rradius rwrist
    rwrist rhand rthumb
    rhand rfingers
  end

#!OML:ASF I:\Actors\actors\Patient Classification 1\Patient 1\Session 1\Subject1.ASF
:FULLY-SPECIFIED
:DEGREES
44
root -0.541413 17.5021 8.18682 9.3811 -2.56789 -8.43666
lowerback 1.70988 0.591056 5.79537
upperback -9.15415 1.39556 1.97664
thorax -10.6602 0.283702 -1.26427
lowerneck -9.41972 -7.89116 -5.91261
upperneck 21.6365 -11.7916 7.68355
head 9.14942 -5.30125 2.27107
rclavicle 1.04362e-014 -3.18055e-015
rhumerus -45.0449 -22.097 -70.7466
rradius 24.3668
rwrist 42.6589
rhand 7.25492 -30.6763
rfingers 7.12502
rthumb 32.5183 -57.7769
lclavicle 1.04362e-014 -3.18055e-015
lhumerus -45.0301 14.1496 78.1071
lradius 23.3252
lwrist -25.1052
lhand -12.0957 -7.24872
lfingers 7.12502
lthumb 13.9648 22.2623
rfemur -2.77462 26.611 25.115
rtibia 0.695339
rfoot -10.4898 -26.4197
rtoes 1.51987
lfemur 6.51207 -44.4807 -13.7985
ltibia -4.60989
lfoot -26.5511 54.5325
ltoes 16.4082
45
root -0.540721 17.5015 8.19118 9.33952 -2.54928 -8.43541
lowerback 1.69059 0.601097 5.81039
upperback -9.14066 1.40621 1.95632
thorax -10.6317 0.287494 -1.29541
lowerneck -9.41794 -7.80154 -5.84642
upperneck 21.6342 -11.6735 7.67367
head 9.13414 -5.24168 2.27242
rclavicle 4.67144e-015 6.36111e-015
rhumerus -45.1155 -22.1761 -70.7478
rradius 24.3479
rwrist 42.6624
rhand 7.32943 -30.6074
rfingers 7.12502
rthumb 32.5892 -57.6934
lclavicle 4.67144e-015 6.36111e-015
lhumerus -45.0999 14.516 77.8203
lradius 23.2867
lwrist -25.1963
lhand -12.2903 -7.40908
lfingers 7.12502
lthumb 13.7772 22.1147
rfemur -2.6852 26.5914 25.1452
rtibia 0.667057
rfoot -10.5396 -26.428
rtoes 1.57471
lfemur 6.69511 -44.7062 -13.9478
ltibia -4.6448
lfoot -26.7963 54.6962
ltoes 16.4588
46
root -0.540206 17.5017 8.19479 9.32609 -2.50991 -8.42133
lowerback 1.6527 0.61088 5.81447
upperback -9.14072 1.41373 1.92202
thorax -10.6073 0.289686 -1.33482
lowerneck -9.43444 -7.72055 -5.73152
upperneck 21.642 -11.5662 7.62006
head 9.12087 -5.18684 2.24899
rclavicle -5.1684e-015 -1.05356e-014
rhumerus -45.208 -22.2662 -70.7714
rradius 24.3754
rwrist 42.6269
rhand 7.37803 -30.604
rfingers 7.12502
rthumb 32.6354 -57.6804
lclavicle -5.1684e-015 -1.05356e-014
lhumerus -45.1331 14.8131 77.581
lradius 23.2389
lwrist -25.2473
lhand -12.6194 -7.62095
lfingers 7.12502
lthumb 13.4601 21.9241
rfemur -2.62866 26.5805 25.15
rtibia 0.636343
rfoot -10.5434 -26.4633
rtoes 1.5995
lfemur 6.78098 -44.8135 -14.0258
ltibia -4.68508
lfoot -26.7845 54.7751
ltoes 16.3353
47
root -0.53934 17.5023 8.19684 9.35736 -2.45848 -8.37771
lowerback 1.60054 0.625464 5.78586
upperback -9.15942 1.42486 1.88303
thorax -10.5952 0.29564 -1.36118
lowerneck -9.47774 -7.64271 -5.67151
upperneck 21.6709 -11.4558 7.57365
head 9.12375 -5.13285 2.23592
rclavicle -6.21202e-015 -2.66371e-014
rhumerus -45.2784 -22.2987 -70.843
rradius 24.4442
rwrist 42.4996
rhand 7.50165 -30.5774
rfingers 7.12502
rthumb 32.7531 -57.6294
lclavicle -6.21202e-015 -2.66371e-014
lhumerus -45.1443 15.058 77.4075
lradius 23.1798
lwrist -25.3258
lhand -13.1207 -7.82161
lfingers 7.12502
lthumb 12.9768 21.7548
rfemur -2.64841 26.6152 25.0899
rtibia 0.636487
rfoot -10.5687 -26.5331
rtoes 1.69775
lfemur 6.70695 -44.7976 -14.0224
ltibia -4.67823
lfoot -26.6593 54.729
ltoes 16.3144
48
root -0.53785 17.502 8.19885 9.3838 -2.40345 -8.3787
lowerback 1.55591 0.637822 5.80601
upperback -9.17283 1.43927 1.87161
thorax -10.5821 0.30058 -1.38546
lowerneck -9.45385 -7.53861 -5.65259
upperneck 21.658 -11.3042 7.548
head 9.10036 -5.0637 2.24442
rclavicle 1.04859e-014 3.16068e-014
rhumerus -45.3054 -22.2494 -70.957
rradius 24.5118
rwrist 42.3387
rhand 7.55666 -30.515
rfingers 7.12502
rthumb 32.8054 -57.556
lclavicle 1.04859e-014 3.16068e-014
lhumerus -45.1419 15.3117 77.2828
lradius 23.1099
lwrist -25.4208
lhand -13.7647 -8.14909
lfingers 7.12502
lthumb 12.356 21.4658
rfemur -2.67487 26.6254 25.0819
rtibia 0.66106
rfoot -10.6744 -26.5561
rtoes 1.78639
lfemur 6.62483 -44.7517 -13.9642
ltibia -4.65772
lfoot -26.5577 54.6623
ltoes 16.3702
49
root -0.536637 17.5013 8.2008 9.38186 -2.36455 -8.41462
lowerback 1.53794 0.64047 5.84657
upperback -9.18862 1.44606 1.88103
thorax -10.5889 0.300555 -1.39824
lowerneck -9.38169 -7.45848 -5.64275
upperneck 21.6331 -11.1911 7.54257
head 9.06866 -5.01315 2.25813
rclavicle -1.04362e-014 -1.5704e-014
rhumerus -45.3429 -22.0714 -71.1446
rradius 24.6234
rwrist 42.1709
rhand 7.53682 -30.5282
rfingers 7.12502
rthumb 32.7865 -57.5732
lclavicle -1.04362e-014 -1.5704e-014
lhumerus -45.142 15.5594 77.1797
lradius 23.0303
lwrist -25.4855
lhand -14.5248 -8.5188
lfingers 7.12502
lthumb 11.6231 21.1388
rfemur -2.66835 26.615 25.1303
rtibia 0.686887
rfoot -10.7736 -26.5559
rtoes 1.93629
lfemur 6.6201 -44.7232 -13.9137
ltibia -4.66969
lfoot -26.5138 54.6328
ltoes 16.3382
50
root -0.535927 17.5009 8.2029 9.36089 -2.33721 -8.43206
lowerback 1.51616 0.658639 5.84375
upperback -9.19736 1.4689 1.87706
thorax -10.584 0.311816 -1.40297
lowerneck -9.29341 -7.39722 -5.40912
upperneck 21.5382 -11.0891 7.32723
head 8.98441 -4.97269 2.16455
rclavicle -3.67752e-015 -2.94201e-014
rhumerus -45.373 -21.8312 -71.3959
rradius 24.789
rwrist 41.8915
rhand 7.5033 -30.5216
rfingers 7.12502
rthumb 32.7546 -57.5733
lclavicle -3.67752e-015 -2.94201e-014
lhumerus -45.0891 15.6461 77.1671
lradius 22.966
lwrist -25.4802
lhand -15.1431 -8.61823
lfingers 7.12502
lthumb 11.0267 21.0721
rfemur -2.62571 26.6236 25.1696
rtibia 0.681373
rfoot -10.7556 -26.6014
rtoes 2.05494
lfemur 6.66617 -44.7371 -13.9215
ltibia -4.69041
lfoot -26.4609 54.6425
ltoes 16.2081
